<svg xmlns="http://www.w3.org/2000/svg" version="1.1" xmlns:xlink="http://www.w3.org/1999/xlink" xmlns:svgjs="http://svgjs.dev/svgjs" width="2000" height="2000" viewBox="0 0 2000 2000"><g transform="matrix(1,0,0,1,0,0)"><svg viewBox="0 0 280 280" data-background-color="#ffffff" preserveAspectRatio="xMidYMid meet" height="2000" width="2000" xmlns="http://www.w3.org/2000/svg" xmlns:xlink="http://www.w3.org/1999/xlink"><g id="tight-bounds" transform="matrix(1,0,0,1,0,0)"><svg viewBox="0 0 280 280" height="280" width="280"><g><svg viewBox="0 0 280 280" height="280" width="280"><g><svg viewBox="0 0 280 280" height="280" width="280"><g id="textblocktransform"><svg viewBox="0 0 280 280" height="280" width="280" id="textblock"><g><svg viewBox="0 0 280 280" height="280" width="280"><g transform="matrix(1,0,0,1,90.50252531694167,90.58422928566715)"><svg viewBox="0 0 98.99494936611666 98.8315414286657" height="98.8315414286657" width="98.99494936611666"><g><svg xmlns="http://www.w3.org/2000/svg" xmlns:xlink="http://www.w3.org/1999/xlink" version="1.1" x="0" y="0" viewBox="0 0.20499849319458008 99.95999908447266 99.79499816894531" enable-background="new 0 0 100 100" xml:space="preserve" height="98.8315414286657" width="98.99494936611666" class="icon-o-0" data-fill-palette-color="accent" id="o-0"><g fill="#ba3b0a" data-fill-palette-color="accent"><circle cx="49.98" cy="50.02" r="8.3" fill="#ba3b0a" data-fill-palette-color="accent"></circle><path d="M57.492 7.246c0 3.889-3.152 26.404-7.041 26.404-3.888 0-7.041-22.516-7.041-26.404s3.153-7.041 7.041-7.041C54.34 0.205 57.492 3.357 57.492 7.246z" fill="#ba3b0a" data-fill-palette-color="accent"></path><path d="M43.41 92.958c0-3.889 3.153-26.403 7.041-26.403 3.889 0 7.041 22.515 7.041 26.403S54.34 100 50.451 100C46.563 100 43.41 96.847 43.41 92.958z" fill="#ba3b0a" data-fill-palette-color="accent"></path><path d="M85.757 24.872c-2.791 2.707-21.142 16.131-23.849 13.341-2.708-2.79 11.248-20.736 14.038-23.445 2.79-2.707 7.249-2.643 9.956 0.148C88.612 17.705 88.546 22.163 85.757 24.872z" fill="#ba3b0a" data-fill-palette-color="accent"></path><path d="M14.773 75.181c2.79-2.708 21.14-16.129 23.849-13.342 2.707 2.792-11.249 20.736-14.039 23.445-2.789 2.71-7.247 2.645-9.955-0.146C11.919 82.348 11.985 77.892 14.773 75.181z" fill="#ba3b0a" data-fill-palette-color="accent"></path><path d="M74.163 86.315c-2.63-2.866-15.548-21.574-12.685-24.207C64.342 59.479 81.9 73.92 84.53 76.785c2.633 2.861 2.445 7.316-0.416 9.947C81.25 89.364 76.797 89.177 74.163 86.315z" fill="#ba3b0a" data-fill-palette-color="accent"></path><path d="M24.717 14.668c2.716 2.781 16.189 21.094 13.407 23.809-2.781 2.717-20.767-11.188-23.483-13.973-2.717-2.779-2.664-7.239 0.12-9.957C17.542 11.832 22.002 11.885 24.717 14.668z" fill="#ba3b0a" data-fill-palette-color="accent"></path><path d="M7.041 42.756c3.89 0 26.403 3.154 26.403 7.042 0 3.889-22.514 7.042-26.403 7.042C3.153 56.84 0 53.687 0 49.798 0 45.91 3.153 42.756 7.041 42.756z" fill="#ba3b0a" data-fill-palette-color="accent"></path><path d="M92.918 57.059c-3.889 0-26.402-3.15-26.402-7.039s22.514-7.041 26.402-7.041c3.89 0 7.042 3.152 7.042 7.041S96.808 57.059 92.918 57.059z" fill="#ba3b0a" data-fill-palette-color="accent"></path></g></svg></g></svg></g><g><path d="M33.768 92.704v0c-0.582 1.549-1.291 2.668-2.126 3.356v0c-0.89 0.755-1.836 0.988-2.838 0.698v0l-1.65-0.447c0.137-1.132-0.179-2.25-0.948-3.353v0c-0.224-0.308-0.443-0.502-0.657-0.583v0c-0.297-0.112-0.501-0.019-0.613 0.278v0l-0.018 0.048c0.008 0.017 0.006 0.042-0.006 0.073v0c1.363 1.421 1.711 3.02 1.044 4.797v0c-0.34 0.904-0.825 1.602-1.457 2.093-0.638 0.489-1.544 0.816-2.717 0.981v0l-0.039 0.104c-0.114 0.303-0.041 0.504 0.218 0.602v0c0.183 0.069 0.414 0.08 0.691 0.032v0c0.93-0.17 1.736-0.513 2.42-1.028v0c0.56-0.396 0.985-0.874 1.276-1.436v0l3.155 1.337c0.188 0.843 0.239 1.677 0.153 2.503-0.087 0.826-0.39 1.931-0.911 3.315-0.522 1.391-1.259 2.525-2.208 3.402v0c-1.165 1.085-2.342 1.404-3.53 0.957v0c-1.486-0.558-5.036-2.227-10.65-5.007v0c-2.922-1.458-4.954-2.51-6.097-3.156v0c-0.6-1.553-0.472-3.467 0.383-5.743v0c0.62-1.65 1.437-2.905 2.453-3.764v0l3.478 0.246 2.273 1.525c0.154 0.108 0.31 0.192 0.469 0.252v0c0.392 0.147 0.679-0.001 0.859-0.446v0l-6.098-4.13c-0.071-0.56-0.061-1.249 0.029-2.067 0.097-0.815 0.31-1.662 0.641-2.54v0c0.622-1.656 1.361-2.778 2.217-3.366 0.862-0.585 1.981-0.702 3.356-0.351v0c0.267 0.057 0.7 0.162 1.299 0.314v0c9.231 2.292 14.634 3.734 16.209 4.326v0c0.849 1.754 0.829 3.814-0.06 6.178z" fill="#ffa458" data-fill-palette-color="primary"></path><path d="M24.367 66.373v0l16.174 9.424c0.141 0.723 0.117 1.569-0.072 2.538-0.189 0.968-0.617 2.024-1.283 3.168-0.67 1.149-1.493 1.979-2.47 2.488v0c-1.085 0.587-2.135 0.585-3.15-0.006v0l-16.174-9.424c-0.138-0.729-0.114-1.575 0.071-2.538 0.189-0.968 0.615-2.022 1.279-3.159 0.663-1.138 1.486-1.979 2.467-2.525v0c1.101-0.562 2.154-0.551 3.158 0.034z" fill="#ffa458" data-fill-palette-color="primary"></path><path d="M37.551 56.922l2.002 1.648c0.06-0.02 0.164-0.119 0.31-0.296 0.146-0.177 0.187-0.371 0.123-0.581-0.068-0.205-0.258-0.436-0.571-0.693v0l-0.508-0.418c-0.334-0.275-0.606-0.433-0.816-0.475-0.21-0.042-0.391 0.028-0.541 0.21-0.15 0.182-0.23 0.322-0.24 0.419v0c0.046 0.029 0.126 0.091 0.241 0.186zM48.693 53.972v0l4.461-0.381c1.322 1.369 2.065 2.751 2.229 4.145 0.164 1.395-0.3 2.754-1.39 4.078v0c-0.824 1.001-1.776 1.674-2.856 2.018v0c-1.377 0.45-2.907 0.37-4.592-0.239v0l-1.781-0.627c-0.337 0.388-0.797 0.84-1.38 1.357v0c0.013 0.133 0.084 0.253 0.215 0.361v0c0.255 0.21 0.716-0.041 1.381-0.753v0l2.666 0.858 1.189 0.979c-0.124 1.691-0.877 3.376-2.26 5.054v0c-0.992 1.204-2.031 1.962-3.119 2.274-1.082 0.316-2.095 0.085-3.039-0.692v0l-13.293-10.947c-0.412-0.339-0.499-1.046-0.263-2.119 0.237-1.074 0.74-2.322 1.509-3.744 0.765-1.417 1.649-2.736 2.654-3.956v0c2.305-2.799 4.684-4.515 7.137-5.145v0c2.564-0.67 4.938-0.106 7.123 1.692v0c1.251 1.03 2.033 2.264 2.344 3.703 0.312 1.438 0.198 2.835-0.343 4.192v0c0.297 0.245 0.594 0.187 0.891-0.172 0.296-0.36 0.469-1.005 0.517-1.936z" fill="#ffa458" data-fill-palette-color="primary"></path><path d="M53.315 33.967v0l12.421 14.006c-0.092 0.731-0.379 1.527-0.861 2.388-0.482 0.861-1.218 1.73-2.208 2.608-0.995 0.883-2.037 1.414-3.124 1.593v0c-1.214 0.219-2.211-0.111-2.99-0.99v0l-12.422-14.005c0.097-0.736 0.384-1.532 0.861-2.389 0.482-0.861 1.216-1.728 2.201-2.602 0.985-0.874 2.03-1.416 3.133-1.627v0c1.222-0.19 2.218 0.15 2.989 1.018z" fill="#ffa458" data-fill-palette-color="primary"></path><path d="M94.775 33.171v0c-1.481 0.739-2.761 1.076-3.843 1.011v0c-1.166-0.052-2.017-0.526-2.554-1.42v0l-0.904-1.451c0.87-0.736 1.4-1.77 1.588-3.101v0c0.046-0.377 0.017-0.669-0.085-0.875v0c-0.142-0.284-0.355-0.355-0.639-0.213v0l-0.045 0.022c-0.006 0.018-0.024 0.035-0.055 0.05v0c0.031 1.969-0.802 3.377-2.5 4.225v0c-0.864 0.431-1.695 0.612-2.492 0.541-0.8-0.076-1.686-0.453-2.658-1.131v0l-0.1 0.05c-0.29 0.145-0.373 0.341-0.249 0.589v0c0.087 0.175 0.249 0.34 0.484 0.494v0c0.797 0.508 1.621 0.806 2.473 0.895v0c0.679 0.091 1.317 0.03 1.912-0.184v0l1.401 3.127c-0.436 0.746-0.966 1.391-1.592 1.937-0.626 0.546-1.6 1.149-2.923 1.81-1.329 0.663-2.64 0.993-3.934 0.988v0c-1.592 0.002-2.671-0.566-3.237-1.701v0c-0.708-1.42-2.173-5.059-4.393-10.918v0c-1.148-3.057-1.921-5.212-2.318-6.462v0c0.618-1.546 2.014-2.861 4.189-3.946v0c1.577-0.787 3.03-1.149 4.359-1.088v0l2.381 2.548 0.627 2.664c0.039 0.184 0.096 0.352 0.172 0.503v0c0.187 0.375 0.498 0.461 0.933 0.259v0l-1.656-7.177c0.33-0.459 0.806-0.957 1.428-1.494 0.626-0.531 1.358-1.006 2.198-1.425v0c1.583-0.79 2.888-1.109 3.915-0.956 1.03 0.158 1.929 0.834 2.699 2.027v0c0.157 0.224 0.403 0.595 0.737 1.115v0c5.202 7.963 8.179 12.697 8.93 14.201v0c-0.573 1.863-1.989 3.358-4.249 4.486z" fill="#ffa458" data-fill-palette-color="primary"></path><path d="M105.815 7.487v0l5.429 17.916c-0.389 0.626-0.982 1.229-1.781 1.809-0.798 0.58-1.83 1.063-3.097 1.447-1.273 0.386-2.441 0.433-3.503 0.14v0c-1.194-0.308-1.962-1.025-2.302-2.149v0l-5.429-17.916c0.395-0.628 0.989-1.231 1.781-1.809 0.798-0.58 1.827-1.062 3.087-1.444 1.26-0.382 2.436-0.438 3.526-0.169v0c1.189 0.338 1.952 1.063 2.289 2.175z" fill="#ffa458" data-fill-palette-color="primary"></path><path d="M124.435 17.532v0c0.12-0.016 0.223-0.061 0.309-0.134v0l-0.222-1.637c0.742-0.66 1.822-1.263 3.239-1.81 1.418-0.547 2.823-0.916 4.215-1.106v0c0.717 0.563 1.378 1.458 1.981 2.685 0.596 1.227 0.979 2.361 1.148 3.402v0c-0.175 0.515-0.51 1.085-1.004 1.711-0.494 0.626-1.111 1.228-1.85 1.806v0c-1.828 1.442-4.027 2.337-6.597 2.686v0c-3.687 0.502-6.737-0.174-9.149-2.026v0c-2.49-1.869-3.996-4.721-4.518-8.555-0.523-3.841 0.265-7.019 2.363-9.533v0c0.923-1.128 2.051-2.034 3.381-2.72 1.331-0.686 2.77-1.133 4.316-1.343v0c3.018-0.411 5.59-0.018 7.715 1.178 2.126 1.196 3.334 2.865 3.626 5.007v0c0.22 1.619-0.112 2.881-0.998 3.785-0.891 0.912-2.187 1.484-3.887 1.715v0c-0.93 0.127-1.902 0.024-2.914-0.308-1.006-0.333-1.628-0.692-1.864-1.076v0c-0.134-0.984-0.222-1.759-0.266-2.325v0c-0.021-0.004-0.062-0.002-0.121 0.006v0l-0.131 0.018c-0.174 0.024-0.308 0.093-0.401 0.208-0.087 0.114-0.148 0.337-0.185 0.669-0.029 0.338 0.054 1.223 0.249 2.655v0c0.468 3.439 0.99 5.12 1.565 5.042z" fill="#ffa458" data-fill-palette-color="primary"></path><path d="M160.632 5.614v0l-1.192 17.982c-1.415 0.921-3.18 1.312-5.296 1.172v0c-1.624-0.108-2.889-0.523-3.795-1.247v0c-0.959-0.74-1.397-1.751-1.312-3.031v0l0.237-3.578 1.284 0.085c0.492 0.033 0.806-0.011 0.942-0.13 0.137-0.12 0.214-0.324 0.234-0.614v0l-5.681-0.377c-0.019 0.29 0.021 0.502 0.121 0.638 0.099 0.135 0.355 0.216 0.765 0.243v0l1.375 0.091-0.397 5.984c-0.97 0.538-1.876 0.884-2.718 1.038-0.842 0.147-1.698 0.192-2.567 0.135v0c-1.631-0.108-2.899-0.524-3.806-1.247v0c-0.959-0.74-1.397-1.751-1.312-3.031v0l1.192-17.992c0.671-0.626 1.48-1.086 2.427-1.382 0.946-0.289 1.922-0.401 2.926-0.334v0c1.456 0.096 2.665 0.539 3.627 1.326v0c1.044 0.895 1.518 2.063 1.423 3.506v0l-0.214 3.224 2.295 0.152c0.021-0.317-0.022-0.536-0.129-0.658-0.107-0.122-0.285-0.191-0.535-0.208v0l-0.616-0.041 0.319-4.821c0.671-0.626 1.48-1.086 2.427-1.383 0.946-0.289 1.918-0.401 2.915-0.334v0c1.462 0.097 2.675 0.539 3.638 1.327v0c1.044 0.895 1.518 2.063 1.423 3.505z" fill="#ffa458" data-fill-palette-color="primary"></path><path d="M175.01 16.795c0.07 0.125 0.202 0.215 0.396 0.271 0.201 0.057 0.382 0.063 0.543 0.017v0c0.204-1.852 0.297-2.956 0.279-3.311v0c-0.027-0.373-0.171-0.596-0.43-0.671v0c-0.117-0.033-0.267-0.037-0.45-0.012v0zM170.071 21.045v0c-0.163 0.129-0.265 0.265-0.306 0.408v0c-0.096 0.338 0.142 0.711 0.714 1.119 0.567 0.4 1.297 0.759 2.19 1.077v0c-0.328 1.718-0.437 2.719-0.329 3.003v0c-0.343 0.366-1.076 0.624-2.2 0.774-1.124 0.15-2.313 0.047-3.567-0.31v0c-1.663-0.473-2.983-1.236-3.962-2.286-0.985-1.053-1.318-2.141-0.998-3.265v0c0.087-0.305 0.193-0.567 0.318-0.784v0l8.436-15.535c1.097-0.327 2.34-0.475 3.728-0.444 1.382 0.028 2.772 0.241 4.168 0.638v0c2.001 0.57 3.613 1.394 4.836 2.473v0c1.399 1.227 2.068 2.614 2.007 4.162v0l-0.707 17.578c-1.654 1.221-3.848 1.443-6.583 0.664v0c-1.325-0.377-2.378-0.933-3.158-1.668-0.785-0.743-1.127-1.578-1.025-2.504v0l0.224-2.232c0.699 0.185 1.409 0.243 2.131 0.175 0.722-0.068 1.122-0.242 1.201-0.522v0c0.054-0.188 0.022-0.362-0.093-0.521v0c-0.532 0.193-1.14 0.279-1.823 0.26-0.689-0.021-1.307-0.109-1.852-0.264v0c-1.565-0.446-2.682-1.111-3.35-1.996z" fill="#ffa458" data-fill-palette-color="primary"></path><path d="M202.76 15.111v0l9.317 4.764c0.048 0.677-0.008 1.358-0.168 2.042-0.16 0.684-0.363 1.267-0.61 1.748v0c-0.557 1.088-1.188 1.797-1.894 2.125-0.704 0.338-1.44 0.31-2.211-0.083v0l-6.502-3.326c-0.397-0.203-0.675-0.148-0.835 0.165v0l-0.065 0.126c-0.034 0.066-0.043 0.114-0.028 0.145v0l7.711 3.943c0.02 0.435-0.027 0.942-0.141 1.521v0c-0.154 0.612-0.341 1.134-0.562 1.567v0c-0.652 1.275-1.4 2.151-2.244 2.63v0l-3.499-1.789c-1.635-0.836-2.777-1.34-3.425-1.513-0.639-0.175-1.053-0.254-1.244-0.238v0c-0.187 0.025-0.32 0.113-0.396 0.264-0.077 0.15-0.062 0.306 0.045 0.467v0c0.651 0.106 1.304 0.276 1.957 0.512v0c0.849 0.343 1.745 0.756 2.689 1.238v0l4.537 2.32c0.182 1.261-0.059 2.541-0.724 3.84v0c-0.375 0.734-0.827 1.386-1.354 1.958-0.522 0.575-1.07 0.973-1.646 1.195v0l-12.086-6.18c-1.335-0.683-2.239-1.555-2.712-2.616v0c-0.533-1.137-0.459-2.374 0.224-3.709v0l7.849-15.35c0.261-0.511 1.046-0.584 2.354-0.219 1.304 0.371 3.192 1.189 5.663 2.453z" fill="#ffa458" data-fill-palette-color="primary"></path><path d="M217.74 52.822l-10.478-7.994c-1.063-0.811-1.667-1.722-1.813-2.734-0.155-1.01 0.204-2.087 1.076-3.231v0l10.753-14.093c0.842-0.046 1.721 0.094 2.637 0.419 0.912 0.33 1.762 0.797 2.551 1.398v0c1.16 0.885 1.923 1.922 2.29 3.111v0c0.375 1.323 0.125 2.559-0.752 3.708v0l-6.015 7.884c-0.574-0.361-1.217-0.614-1.931-0.76-0.712-0.136-1.17-0.069-1.375 0.2v0c-0.123 0.161-0.138 0.37-0.046 0.628v0c1.561-0.075 3.278 0.602 5.152 2.032v0l3.415 2.605c-0.218 1.6-0.77 2.98-1.655 4.14v0c-0.442 0.58-1.032 1.141-1.769 1.683-0.735 0.552-1.415 0.887-2.04 1.004z" fill="#ffa458" data-fill-palette-color="primary"></path><path d="M231.2 57.427v0c0.322 0.246 0.606 0.258 0.852 0.036 0.246-0.222 0.454-0.551 0.624-0.987 0.166-0.441 0.249-0.939 0.248-1.493v0c0.002-1.449-0.613-2.855-1.844-4.218v0c-0.607-0.672-1.285-1.196-2.036-1.574v0c-0.251-0.902-0.2-1.844 0.151-2.825 0.351-0.981 0.923-1.83 1.715-2.545v0c2.06-1.86 4.427-2.438 7.102-1.733v0c2.298 0.609 4.426 1.999 6.386 4.169v0c1.458 1.614 2.514 3.131 3.169 4.55 0.65 1.415 1.019 2.715 1.106 3.901v0c-0.406 0.74-0.927 1.397-1.563 1.972-0.636 0.575-1.292 1.012-1.967 1.313-0.67 0.296-1.308 0.426-1.914 0.39v0c-0.051-0.509-0.32-1.267-0.809-2.272-0.484-1.01-1.023-1.843-1.616-2.499-0.593-0.657-1.027-1.056-1.302-1.199-0.279-0.148-0.504-0.145-0.674 0.008v0c-0.085 0.077-0.152 0.16-0.199 0.248v0c0.365 0.243 0.77 0.611 1.213 1.102v0c1.58 1.749 2.457 3.546 2.631 5.391v0c0.19 2.195-0.703 4.184-2.678 5.967v0c-1.739 1.571-3.818 2.17-6.238 1.799v0c-2.608-0.42-5.074-1.915-7.396-4.486v0c-1.281-1.418-2.285-2.741-3.011-3.969-0.731-1.233-1.277-2.582-1.637-4.049v0c0.371-1.554 1.06-2.786 2.067-3.696 1.007-0.91 2.157-1.32 3.448-1.231 1.286 0.094 2.384 0.645 3.294 1.653 0.91 1.007 1.449 2.017 1.617 3.03 0.163 1.017-0.083 2.1-0.739 3.247z" fill="#ffa458" data-fill-palette-color="primary"></path><path d="M250.458 76.563l1.36-0.805c1.04-0.616 1.726-1.089 2.056-1.418 0.334-0.324 0.427-0.61 0.279-0.86v0c-0.089-0.151-0.224-0.26-0.404-0.325v0c-0.172 0.133-0.403 0.313-0.693 0.539-0.29 0.227-0.943 0.641-1.96 1.244v0l-1.011 0.598c-0.709 0.42-1.235 0.712-1.577 0.876-0.34 0.154-0.629 0.29-0.866 0.406v0c-0.135 0.064-0.267 0.126-0.395 0.187v0c-0.029 0.19 0.001 0.36 0.091 0.512v0c0.148 0.25 0.444 0.306 0.888 0.168 0.448-0.132 1.192-0.506 2.232-1.122zM240.185 81.8v0c-1.098-1.854-1.722-3.776-1.873-5.766-0.148-2 0.284-3.94 1.298-5.82 1.014-1.88 2.7-3.518 5.059-4.915v0c3.422-2.027 6.706-2.579 9.851-1.655v0c2.775 0.829 5.014 2.681 6.718 5.558v0c1.855 3.132 2.355 6.183 1.501 9.153-0.86 2.974-2.871 5.397-6.032 7.269v0c-3.515 2.082-6.777 2.691-9.784 1.828v0c-2.727-0.787-4.973-2.671-6.738-5.652z" fill="#ffa458" data-fill-palette-color="primary"></path><path d="M250.341 91.897v0l17.175-5.908c0.594-0.204 1.254 0.104 1.979 0.926 0.717 0.818 1.297 1.871 1.741 3.161v0c0.253 0.734 0.404 1.454 0.453 2.158 0.043 0.706-0.013 1.279-0.169 1.719v0c-0.434 0.67-0.893 1.307-1.378 1.909-0.479 0.6-1.618 1.971-3.417 4.111v0c0.042 0.121 0.122 0.219 0.239 0.293 0.114 0.082 0.254 0.095 0.42 0.037 0.166-0.057 0.442-0.313 0.829-0.767v0l2.544-2.943 0.949-0.326c0.679 0.416 1.292 0.995 1.839 1.735 0.55 0.746 0.978 1.567 1.286 2.461v0c0.499 1.45 0.639 2.708 0.42 3.776v0c-0.274 1.258-1.079 2.117-2.413 2.576v0l-16.226 5.582c-0.983 0.338-1.86 0.115-2.631-0.67v0c-0.677-0.66-1.245-1.657-1.704-2.992v0c-0.255-0.741-0.423-1.49-0.505-2.247-0.082-0.757-0.064-1.381 0.053-1.871v0c0.762-1.169 1.651-2.375 2.666-3.617v0l2.309-2.755c-0.159-0.317-0.392-0.422-0.699-0.316v0c-0.198 0.068-0.514 0.363-0.949 0.883v0l-2.72 3.336-0.91 0.313c-1.313-1.034-2.255-2.381-2.826-4.042-0.573-1.667-0.718-3.074-0.434-4.221 0.275-1.152 0.968-1.919 2.079-2.301z" fill="#ffa458" data-fill-palette-color="primary"></path><path d="M13.739 197.406v0c-0.581-1.549-0.784-2.858-0.608-3.927v0c0.178-1.141 0.735-1.935 1.671-2.38v0l1.536-0.75c0.636 0.944 1.605 1.576 2.908 1.896v0c0.364 0.087 0.654 0.09 0.869 0.009v0c0.291-0.109 0.381-0.312 0.269-0.61v0l-0.018-0.047c-0.011-0.01-0.023-0.031-0.034-0.063v0c-1.953-0.169-3.262-1.138-3.927-2.908v0c-0.337-0.898-0.429-1.74-0.276-2.526 0.152-0.786 0.617-1.624 1.393-2.514v0l-0.039-0.104c-0.114-0.303-0.3-0.407-0.56-0.309v0c-0.183 0.069-0.361 0.211-0.532 0.427v0c-0.59 0.734-0.973 1.519-1.149 2.357v0c-0.161 0.666-0.163 1.305-0.006 1.917v0l-3.246 1.067c-0.696-0.51-1.284-1.105-1.762-1.784-0.476-0.673-0.974-1.701-1.493-3.086-0.517-1.378-0.71-2.709-0.579-3.992v0c0.17-1.586 0.846-2.6 2.028-3.044v0c1.473-0.553 5.229-1.627 11.266-3.221v0c3.147-0.82 5.36-1.362 6.639-1.626v0c1.474 0.774 2.635 2.293 3.485 4.557v0c0.617 1.644 0.825 3.12 0.623 4.429v0l-2.758 2.106-2.709 0.335c-0.187 0.02-0.36 0.059-0.518 0.119v0c-0.392 0.147-0.51 0.447-0.355 0.901v0l7.282-0.893c0.42 0.369 0.863 0.888 1.331 1.556 0.463 0.677 0.86 1.455 1.19 2.334v0c0.617 1.644 0.797 2.969 0.539 3.974-0.26 0.999-1.022 1.823-2.287 2.471v0c-0.235 0.124-0.627 0.329-1.176 0.614v0c-8.429 4.332-13.428 6.792-14.996 7.38v0c-1.785-0.758-3.119-2.314-4.001-4.665z" fill="#ffa458" data-fill-palette-color="primary"></path><path d="M41.107 206.47v0l-16.125 9.389c-0.693-0.237-1.412-0.674-2.158-1.311-0.749-0.642-1.457-1.535-2.123-2.679-0.666-1.144-0.978-2.263-0.935-3.359v0c0.028-1.227 0.546-2.135 1.556-2.723v0l16.116-9.383c0.693 0.237 1.412 0.674 2.158 1.31 0.746 0.636 1.45 1.524 2.112 2.662 0.659 1.132 0.984 2.26 0.974 3.384v0c-0.052 1.226-0.577 2.129-1.575 2.71z" fill="#ffa458" data-fill-palette-color="primary"></path><path d="M45.394 219.254l-1.994 1.641c0.004 0.058 0.079 0.176 0.224 0.353 0.146 0.177 0.328 0.255 0.546 0.233 0.213-0.018 0.478-0.158 0.797-0.419v0l0.5-0.412c0.334-0.275 0.541-0.511 0.623-0.71 0.076-0.194 0.04-0.382-0.11-0.565-0.15-0.182-0.269-0.29-0.358-0.322v0c-0.043 0.044-0.119 0.111-0.228 0.201zM46.147 230.705v0l-0.489 4.443c-1.587 1.026-3.076 1.486-4.466 1.38-1.4-0.107-2.643-0.82-3.729-2.139v0c-0.815-0.991-1.288-2.049-1.419-3.175v0c-0.178-1.428 0.191-2.908 1.107-4.441v0l0.951-1.635c-0.307-0.394-0.661-0.93-1.061-1.607v0c-0.138-0.009-0.273 0.041-0.403 0.148v0c-0.25 0.206-0.088 0.706 0.488 1.501v0l-1.352 2.438-1.189 0.979c-1.631-0.451-3.135-1.513-4.512-3.187v0c-0.983-1.194-1.525-2.353-1.628-3.476-0.093-1.122 0.33-2.069 1.269-2.841v0l13.241-10.899c0.407-0.335 1.112-0.286 2.116 0.147 1.008 0.438 2.132 1.166 3.372 2.184 1.239 1.027 2.358 2.148 3.358 3.363v0c2.296 2.79 3.519 5.439 3.669 7.948v0c0.161 2.64-0.845 4.855-3.019 6.645v0c-1.246 1.026-2.6 1.554-4.062 1.585-1.466 0.026-2.811-0.354-4.034-1.14v0c-0.297 0.245-0.298 0.547-0.002 0.906 0.292 0.355 0.89 0.645 1.794 0.873z" fill="#ffa458" data-fill-palette-color="primary"></path><path d="M66.17 234.155v0l-12.382 13.958c-0.732-0.009-1.552-0.199-2.46-0.57-0.912-0.376-1.864-1.003-2.853-1.882-0.99-0.878-1.636-1.844-1.939-2.897v0c-0.357-1.175-0.148-2.199 0.627-3.073v0l12.376-13.951c0.732 0.009 1.552 0.199 2.459 0.57 0.907 0.371 1.853 0.994 2.839 1.868 0.98 0.869 1.641 1.839 1.982 2.91v0c0.334 1.181 0.117 2.203-0.649 3.067z" fill="#ffa458" data-fill-palette-color="primary"></path><path d="M85.263 268.622v0c-1.481-0.738-2.521-1.558-3.12-2.46v0c-0.648-0.957-0.78-1.917-0.398-2.881v0l0.614-1.595c1.109 0.258 2.249 0.06 3.42-0.594v0c0.326-0.185 0.54-0.38 0.642-0.585v0c0.139-0.278 0.066-0.488-0.218-0.629v0l-0.045-0.023c-0.015 0-0.038-0.007-0.068-0.022v0c-1.545 1.207-3.163 1.389-4.856 0.545v0c-0.858-0.428-1.499-0.981-1.923-1.66-0.424-0.679-0.654-1.609-0.692-2.79v0l-0.1-0.049c-0.29-0.145-0.497-0.093-0.62 0.154v0c-0.087 0.175-0.12 0.4-0.099 0.676v0c0.068 0.939 0.322 1.775 0.764 2.508v0c0.336 0.598 0.77 1.067 1.302 1.407v0l-1.649 2.993c-0.858 0.101-1.693 0.066-2.506-0.106-0.807-0.168-1.872-0.582-3.195-1.242-1.318-0.657-2.365-1.499-3.143-2.528v0c-0.956-1.276-1.152-2.48-0.589-3.61v0c0.702-1.408 2.719-4.753 6.053-10.033v0c1.745-2.745 2.996-4.649 3.753-5.713v0c1.606-0.437 3.491-0.116 5.655 0.962v0c1.571 0.783 2.729 1.722 3.473 2.818v0l-0.584 3.421-1.755 2.091c-0.124 0.142-0.223 0.289-0.298 0.44v0c-0.187 0.375-0.069 0.675 0.354 0.901v0l4.722-5.615c0.559-0.016 1.237 0.062 2.035 0.233 0.801 0.18 1.621 0.48 2.461 0.898v0c1.571 0.783 2.605 1.631 3.102 2.542 0.49 0.908 0.493 2.03 0.009 3.366v0c-0.087 0.251-0.235 0.668-0.443 1.251v0c-3.22 8.914-5.203 14.12-5.95 15.619v0c-1.823 0.661-3.859 0.431-6.108-0.69z" fill="#ffa458" data-fill-palette-color="primary"></path><path d="M111.473 256.607v0l-5.403 17.86c-0.669 0.299-1.493 0.469-2.473 0.511-0.986 0.04-2.112-0.131-3.379-0.514-1.267-0.383-2.258-0.99-2.973-1.821v0c-0.816-0.917-1.055-1.935-0.717-3.053v0l5.4-17.85c0.669-0.299 1.493-0.469 2.473-0.511 0.979-0.042 2.099 0.127 3.359 0.508 1.254 0.379 2.26 0.984 3.019 1.813v0c0.797 0.933 1.029 1.952 0.694 3.057z" fill="#ffa458" data-fill-palette-color="primary"></path><path d="M123.645 271.405v0c0.12 0.016 0.232 0.001 0.333-0.046v0l0.22-1.627c0.884-0.439 2.083-0.733 3.596-0.882 1.506-0.15 2.952-0.131 4.337 0.056v0c0.542 0.728 0.937 1.763 1.184 3.105 0.254 1.343 0.321 2.534 0.2 3.574v0c-0.299 0.443-0.77 0.901-1.413 1.373-0.643 0.472-1.394 0.884-2.253 1.238v0c-2.14 0.903-4.491 1.18-7.054 0.833v0c-3.674-0.498-6.423-1.958-8.249-4.38v0c-1.889-2.451-2.575-5.59-2.055-9.417 0.518-3.821 2.119-6.661 4.804-8.519v0c1.183-0.835 2.504-1.405 3.963-1.711 1.466-0.306 2.965-0.355 4.497-0.147v0c3.011 0.408 5.379 1.469 7.103 3.181 1.723 1.719 2.44 3.646 2.15 5.781v0c-0.218 1.606-0.874 2.727-1.968 3.362-1.095 0.635-2.489 0.838-4.182 0.609v0c-0.93-0.126-1.836-0.481-2.718-1.064-0.881-0.59-1.384-1.101-1.51-1.533v0c0.132-0.977 0.256-1.741 0.372-2.291v0c-0.025-0.017-0.068-0.03-0.128-0.038v0l-0.12-0.016c-0.181-0.024-0.328 0.007-0.442 0.094-0.114 0.087-0.233 0.285-0.357 0.595-0.124 0.31-0.283 1.182-0.477 2.614v0c-0.465 3.426-0.409 5.178 0.167 5.256z" fill="#ffa458" data-fill-palette-color="primary"></path><path d="M159.474 259.448v0l1.194 17.9c-1.273 1.1-2.961 1.72-5.063 1.861v0c-1.624 0.108-2.933-0.136-3.927-0.733v0c-1.042-0.607-1.606-1.548-1.691-2.821v0l-0.238-3.568 1.283-0.086c0.492-0.033 0.798-0.114 0.918-0.244 0.113-0.136 0.159-0.349 0.14-0.638v0l-5.65 0.377c0.019 0.29 0.087 0.495 0.204 0.616 0.116 0.114 0.376 0.158 0.78 0.13v0l1.375-0.092 0.398 5.964c-0.883 0.661-1.732 1.124-2.547 1.388-0.815 0.257-1.658 0.415-2.527 0.473v0c-1.617 0.108-2.923-0.137-3.917-0.733v0c-1.042-0.607-1.606-1.548-1.691-2.822v0l-1.196-17.92c0.583-0.702 1.32-1.262 2.213-1.681 0.893-0.412 1.838-0.651 2.835-0.717v0c1.455-0.097 2.713 0.181 3.772 0.835v0c1.146 0.742 1.767 1.835 1.863 3.277v0l0.214 3.204 2.284-0.153c-0.021-0.31-0.092-0.518-0.214-0.625-0.122-0.107-0.308-0.152-0.557-0.135v0l-0.617 0.041-0.321-4.811c0.583-0.702 1.32-1.262 2.213-1.681 0.9-0.412 1.848-0.651 2.845-0.718v0c1.449-0.097 2.703 0.182 3.762 0.836v0c1.146 0.742 1.767 1.835 1.863 3.276z" fill="#ffa458" data-fill-palette-color="primary"></path><path d="M174.225 262.914c0.117 0.065 0.273 0.07 0.468 0.015 0.201-0.057 0.359-0.144 0.473-0.262v0c-0.8-1.675-1.299-2.66-1.495-2.955v0c-0.226-0.301-0.466-0.415-0.719-0.342v0c-0.117 0.033-0.246 0.109-0.389 0.226v0zM172.272 269.107v0c-0.071 0.196-0.086 0.362-0.047 0.498v0c0.096 0.338 0.492 0.53 1.186 0.578 0.693 0.041 1.499-0.038 2.419-0.237v0c0.632 1.625 1.064 2.527 1.298 2.706v0c-0.099 0.492-0.583 1.097-1.452 1.815-0.87 0.718-1.931 1.256-3.185 1.614v0c-1.65 0.47-3.167 0.517-4.553 0.139-1.384-0.371-2.236-1.118-2.556-2.242v0c-0.085-0.299-0.132-0.573-0.14-0.824v0l-1.021-17.584c0.76-0.856 1.736-1.633 2.928-2.33 1.19-0.704 2.479-1.255 3.869-1.651v0c1.987-0.567 3.784-0.717 5.391-0.452v0c1.823 0.309 3.116 1.138 3.879 2.486v0l8.621 15.239c-0.755 1.908-2.494 3.249-5.215 4.025v0c-1.318 0.376-2.503 0.457-3.554 0.244-1.051-0.213-1.777-0.74-2.178-1.581v0l-0.983-2.005c0.691-0.211 1.325-0.536 1.903-0.975 0.571-0.437 0.816-0.794 0.737-1.073v0c-0.052-0.182-0.169-0.31-0.352-0.385v0c-0.353 0.438-0.824 0.828-1.414 1.173-0.59 0.344-1.155 0.593-1.694 0.746v0c-1.565 0.446-2.861 0.471-3.887 0.075z" fill="#ffa458" data-fill-palette-color="primary"></path><path d="M190.988 244.425v0l9.27-4.744c0.574 0.351 1.092 0.792 1.553 1.322 0.461 0.53 0.815 1.036 1.061 1.517v0c0.554 1.082 0.76 2.004 0.619 2.766-0.147 0.766-0.599 1.342-1.356 1.73v0l-6.484 3.318c-0.397 0.203-0.517 0.458-0.359 0.765v0l0.069 0.135c0.031 0.06 0.064 0.096 0.1 0.108v0l7.683-3.932c0.362 0.232 0.741 0.565 1.138 0.999v0c0.412 0.479 0.728 0.932 0.946 1.36v0c0.652 1.274 0.926 2.394 0.82 3.358v0l-3.49 1.786c-1.623 0.831-2.695 1.455-3.217 1.874-0.512 0.422-0.816 0.71-0.912 0.865v0c-0.089 0.167-0.095 0.326-0.018 0.476 0.077 0.15 0.212 0.229 0.406 0.236v0c0.461-0.463 0.978-0.891 1.55-1.283v0c0.769-0.484 1.622-0.967 2.56-1.446v0l4.518-2.313c1.126 0.584 2.021 1.526 2.686 2.825v0c0.372 0.727 0.639 1.471 0.8 2.23 0.152 0.757 0.152 1.432 0.001 2.025v0l-12.038 6.162c-1.329 0.68-2.56 0.904-3.695 0.673v0c-1.228-0.236-2.183-1.018-2.863-2.347v0l-7.823-15.284c-0.265-0.517 0.132-1.194 1.191-2.032 1.058-0.838 2.82-1.887 5.284-3.149z" fill="#ffa458" data-fill-palette-color="primary"></path><path d="M230.343 246.33l-10.426 7.961c-1.063 0.811-2.099 1.157-3.109 1.036-1.014-0.126-1.956-0.758-2.825-1.897v0l-10.715-14.033c0.177-0.815 0.543-1.621 1.098-2.418 0.554-0.788 1.222-1.481 2.006-2.08v0c1.159-0.885 2.361-1.348 3.605-1.389v0c1.365-0.014 2.487 0.553 3.363 1.702v0l5.994 7.85c-0.5 0.458-0.911 1.01-1.234 1.655-0.323 0.646-0.382 1.103-0.176 1.372v0c0.123 0.161 0.318 0.233 0.585 0.215v0c0.344-1.52 1.447-2.991 3.309-4.412v0l3.406-2.601c1.472 0.626 2.651 1.519 3.536 2.679v0c0.439 0.574 0.825 1.286 1.159 2.135 0.334 0.849 0.476 1.591 0.424 2.225z" fill="#ffa458" data-fill-palette-color="primary"></path><path d="M236.838 230.256v0c0.217-0.341 0.202-0.622-0.043-0.844-0.246-0.222-0.594-0.395-1.045-0.52-0.451-0.116-0.952-0.15-1.504-0.102v0c-1.431 0.155-2.76 0.911-3.986 2.27v0c-0.602 0.667-1.055 1.39-1.36 2.171v0c-0.867 0.336-1.807 0.38-2.819 0.13-1.007-0.245-1.904-0.722-2.691-1.433v0c-2.055-1.855-2.869-4.144-2.439-6.868v0c0.378-2.334 1.542-4.581 3.492-6.741v0c1.452-1.609 2.844-2.809 4.176-3.6 1.337-0.786 2.588-1.285 3.753-1.497v0c0.777 0.328 1.481 0.778 2.113 1.347 0.637 0.575 1.139 1.178 1.506 1.809 0.363 0.636 0.557 1.258 0.583 1.864v0c-0.502 0.102-1.227 0.448-2.177 1.037-0.946 0.584-1.712 1.202-2.301 1.853-0.593 0.657-0.946 1.129-1.06 1.418-0.119 0.293-0.096 0.514 0.069 0.663v0c0.08 0.072 0.169 0.13 0.267 0.173v0c0.205-0.388 0.529-0.828 0.973-1.32v0c1.57-1.74 3.264-2.79 5.081-3.15v0c2.15-0.407 4.208 0.277 6.173 2.05v0c1.735 1.566 2.54 3.566 2.416 6.001v0c-0.148 2.623-1.378 5.216-3.689 7.778v0c-1.276 1.414-2.487 2.545-3.635 3.392-1.143 0.843-2.421 1.518-3.834 2.025v0c-1.579-0.206-2.872-0.764-3.88-1.673-1.003-0.905-1.525-1.999-1.566-3.283-0.042-1.284 0.392-2.43 1.301-3.438 0.905-1.003 1.853-1.639 2.843-1.91 0.986-0.266 2.08-0.133 3.283 0.398z" fill="#ffa458" data-fill-palette-color="primary"></path><path d="M249.524 205.513l-1.351-0.8c-1.034-0.612-1.774-0.987-2.218-1.124-0.444-0.137-0.739-0.084-0.884 0.16v0c-0.093 0.157-0.125 0.33-0.095 0.52v0c0.2 0.087 0.469 0.203 0.806 0.348 0.332 0.142 1.007 0.513 2.024 1.115v0l1.011 0.598c0.703 0.416 1.206 0.733 1.509 0.952 0.302 0.218 0.563 0.408 0.781 0.568v0c0.115 0.084 0.23 0.168 0.346 0.252v0c0.18-0.066 0.317-0.177 0.409-0.334v0c0.144-0.244 0.049-0.528-0.284-0.852-0.329-0.32-1.013-0.788-2.054-1.403zM259.026 211.972v0c-1.09 1.842-2.472 3.308-4.144 4.398-1.669 1.084-3.569 1.635-5.699 1.653-2.126 0.013-4.366-0.677-6.72-2.07v0c-3.406-2.015-5.46-4.616-6.164-7.803v0c-0.605-2.822-0.06-5.666 1.635-8.531v0c1.847-3.121 4.273-5.02 7.279-5.697 3.012-0.674 6.09-0.08 9.234 1.78v0c3.505 2.074 5.6 4.632 6.287 7.676v0c0.622 2.754 0.053 5.619-1.708 8.594z" fill="#ffa458" data-fill-palette-color="primary"></path><path d="M263.629 195.252v0l-17.11-5.88c-0.588-0.202-0.916-0.847-0.985-1.934-0.063-1.085 0.127-2.27 0.568-3.554v0c0.25-0.728 0.572-1.385 0.967-1.971 0.401-0.584 0.796-0.997 1.187-1.241v0c0.748-0.264 1.498-0.485 2.252-0.662 0.745-0.172 2.477-0.548 5.196-1.127v0c0.044-0.128 0.042-0.257-0.006-0.388-0.042-0.129-0.145-0.221-0.311-0.278-0.166-0.057-0.538-0.024-1.116 0.098v0l-3.803 0.75-0.938-0.323c-0.279-0.746-0.407-1.579-0.384-2.499 0.023-0.92 0.188-1.824 0.493-2.712v0c0.496-1.443 1.158-2.519 1.987-3.226v0c0.984-0.826 2.143-1.01 3.478-0.551v0l16.161 5.554c0.984 0.338 1.535 1.049 1.656 2.133v0c0.128 0.937-0.037 2.072-0.497 3.407v0c-0.255 0.741-0.581 1.432-0.98 2.073-0.401 0.648-0.797 1.126-1.189 1.434v0c-1.313 0.456-2.748 0.859-4.304 1.209v0l-3.502 0.746c-0.069 0.347 0.049 0.574 0.356 0.679v0c0.192 0.066 0.619 0.027 1.283-0.116v0l4.179-0.941 0.901 0.309c0.404 1.61 0.32 3.245-0.251 4.905-0.568 1.654-1.314 2.847-2.237 3.58-0.929 0.73-1.946 0.906-3.051 0.526z" fill="#ffa458" data-fill-palette-color="primary"></path><path d="M3.21 141.332c0-5.054 4.097-9.152 9.152-9.152 5.054 0 9.152 4.097 9.152 9.152 0 5.054-4.097 9.152-9.152 9.152-5.054 0-9.152-4.097-9.152-9.152z" fill="#ffa458" data-fill-palette-color="primary"></path><path d="M258.486 141.332c0-5.054 4.097-9.152 9.152-9.152 5.054 0 9.152 4.097 9.152 9.152 0 5.054-4.097 9.152-9.152 9.152-5.054 0-9.152-4.097-9.152-9.152z" fill="#ffa458" data-fill-palette-color="primary"></path></g></svg></g></svg></g></svg></g></svg></g><defs></defs></svg><rect width="280" height="280" fill="none" stroke="none" visibility="hidden"></rect></g></svg></g></svg>